<?xml version="1.0" encoding="UTF-8"?>
<svg width="14px" height="13px" viewBox="0 0 14 13" version="1.1" xmlns="http://www.w3.org/2000/svg" xmlns:xlink="http://www.w3.org/1999/xlink">
    <!-- Generator: Sketch 54.1 (76490) - https://sketchapp.com -->
    <title>形状</title>
    <desc>Created with Sketch.</desc>
    <g id="页面-1" stroke="none" stroke-width="1" fill="none" fill-rule="evenodd">
        <g id="考题" transform="translate(-249.000000, -598.000000)" fill="#FF4747" fill-rule="nonzero">
            <path d="M261.852,610.188 C261.413,610.627 260.698,610.627 260.258,610.188 L250.161,600.091 C249.722,599.651 249.721,598.937 250.161,598.497 C250.599,598.057 251.314,598.057 251.756,598.497 L261.852,608.593 C262.291,609.035 262.293,609.748 261.852,610.188 L261.852,610.188 Z M261.84,600.086 L251.744,610.182 C251.303,610.623 250.589,610.623 250.149,610.182 C249.709,609.743 249.709,609.03 250.15,608.588 L260.246,598.493 C260.687,598.053 261.402,598.053 261.84,598.492 C262.281,598.932 262.279,599.646 261.84,600.086 L261.84,600.086 Z" id="形状"></path>
        </g>
    </g>
</svg>